<?xml version="1.0" encoding="UTF-8"?>
<svg id="Calque_1" data-name="Calque 1" xmlns="http://www.w3.org/2000/svg" viewBox="0 0 33 33">
  <defs>
    <style>
      .cls-1, .cls-2 {
        fill: #444;
        fill-rule: evenodd;
        stroke-width: 0px;
      }

      .cls-2 {
        isolation: isolate;
        opacity: .1;
      }
    </style>
  </defs>
  <path class="cls-2" d="M0,16.5C0,7.39,7.39,0,16.5,0s16.5,7.39,16.5,16.5-7.39,16.5-16.5,16.5S0,25.61,0,16.5Z"/>
  <path class="cls-1" d="M16.5,7.7c-2.39,0-2.69.01-3.63.05-.94.04-1.58.19-2.14.41-.58.22-1.07.53-1.56,1.01-.49.49-.79.98-1.02,1.56-.22.56-.37,1.2-.41,2.14-.04.94-.05,1.24-.05,3.63s.01,2.69.05,3.63c.04.94.19,1.58.41,2.14.22.58.53,1.07,1.01,1.56.49.49.98.79,1.56,1.02.56.22,1.2.37,2.14.41.94.04,1.24.05,3.63.05s2.69-.01,3.63-.05c.94-.04,1.58-.19,2.14-.41.58-.22,1.07-.53,1.56-1.02.49-.49.79-.98,1.02-1.56.22-.56.36-1.2.41-2.14.04-.94.05-1.24.05-3.63s-.01-2.69-.05-3.63c-.04-.94-.19-1.58-.41-2.14-.23-.58-.53-1.07-1.02-1.56-.49-.49-.98-.79-1.56-1.01-.56-.22-1.2-.37-2.14-.41-.94-.04-1.24-.05-3.63-.05h0ZM15.71,9.29c.23,0,.5,0,.79,0,2.35,0,2.63,0,3.56.05.86.04,1.32.18,1.63.3.41.16.7.35,1.01.66.31.31.5.6.66,1.01.12.31.26.78.3,1.63.04.93.05,1.21.05,3.55s0,2.63-.05,3.55c-.04.86-.18,1.32-.3,1.63-.16.41-.35.7-.66,1.01-.31.31-.6.5-1.01.66-.31.12-.78.26-1.63.3-.93.04-1.21.05-3.56.05s-2.63,0-3.56-.05c-.86-.04-1.32-.18-1.63-.3-.41-.16-.7-.35-1.01-.66-.31-.31-.5-.6-.66-1.01-.12-.31-.26-.78-.3-1.63-.04-.93-.05-1.21-.05-3.56s0-2.63.05-3.55c.04-.86.18-1.32.3-1.63.16-.41.35-.7.66-1.01.31-.31.6-.5,1.01-.66.31-.12.78-.26,1.63-.3.81-.04,1.13-.05,2.77-.05h0ZM21.2,10.75c-.58,0-1.06.47-1.06,1.06s.47,1.06,1.06,1.06,1.06-.47,1.06-1.06-.47-1.06-1.06-1.06ZM16.5,11.98c-2.5,0-4.52,2.02-4.52,4.52s2.02,4.52,4.52,4.52,4.52-2.02,4.52-4.52-2.02-4.52-4.52-4.52ZM16.5,13.57c1.62,0,2.93,1.31,2.93,2.93s-1.31,2.93-2.93,2.93-2.93-1.31-2.93-2.93,1.31-2.93,2.93-2.93Z"/>
</svg>