<?xml version="1.0" encoding="UTF-8"?>
<svg id="Calque_1" data-name="Calque 1" xmlns="http://www.w3.org/2000/svg" version="1.1" viewBox="0 0 33 33">
  <defs>
    <style>
      .cls-1, .cls-2 {
        fill: #444;
        fill-rule: evenodd;
        stroke-width: 0px;
      }

      .cls-2 {
        isolation: isolate;
        opacity: .1;
      }
    </style>
  </defs>
  <path class="cls-2" d="M0,16.5C0,7.4,7.4,0,16.5,0s16.5,7.4,16.5,16.5-7.4,16.5-16.5,16.5S0,25.6,0,16.5Z"/>
  <path class="cls-1" d="M16,13.4v.6h-.5c-2.1-.3-3.9-1.2-5.5-2.7l-.8-.8-.2.6c-.4,1.2-.2,2.6.7,3.4.5.5.4.6-.4.3-.3,0-.5-.2-.5-.1,0,0,.2,1.1.4,1.6.3.6.9,1.2,1.6,1.5l.6.3h-.7c-.6,0-.7,0-.6.3.2.8,1.1,1.6,2.2,1.9l.7.2-.6.4c-.9.5-2,.8-3.1.9h-.9c0,.1,1.4.8,2.2,1,2.5.8,5.4.4,7.6-.9,1.6-.9,3.1-2.7,3.8-4.5.4-.9.8-2.7.8-3.5s0-.6.7-1.2c.4-.4.7-.8.8-.9q.1-.2-.5,0c-1,.3-1.1.3-.6-.2s.8-1,.8-1.2-.2,0-.4.1c-.2.1-.7.3-1,.4l-.6.2-.6-.4c-.3-.2-.8-.4-1-.5-.6-.2-1.5-.1-2,0-1.4.5-2.4,1.9-2.3,3.4v-.2Z"/>
</svg>