<?xml version="1.0" encoding="UTF-8"?>
<svg id="Calque_1" data-name="Calque 1" xmlns="http://www.w3.org/2000/svg" version="1.1" viewBox="0 0 33 33">
  <defs>
    <style>
      .cls-1, .cls-2 {
        fill: #444;
        fill-rule: evenodd;
        stroke-width: 0px;
      }

      .cls-2 {
        isolation: isolate;
        opacity: .1;
      }
    </style>
  </defs>
  <path class="cls-2" d="M0,16.5C0,7.4,7.4,0,16.5,0s16.5,7.4,16.5,16.5-7.4,16.5-16.5,16.5S0,25.6,0,16.5Z"/>
  <path class="cls-1" d="M23.4,10.8c.8.2,1.4.8,1.6,1.6.4,1.4.4,4.3.4,4.3,0,0,0,2.9-.4,4.3-.2.8-.8,1.4-1.6,1.6-1.4.4-6.9.4-6.9.4,0,0-5.5,0-6.9-.4-.8-.2-1.4-.8-1.6-1.6-.4-1.4-.4-4.3-.4-4.3,0,0,0-2.9.4-4.3.2-.8.8-1.4,1.6-1.6,1.4-.4,6.9-.4,6.9-.4,0,0,5.5,0,6.9.4ZM14.9,14.3v5.5l4.4-2.7-4.4-2.8Z"/>
</svg>